<svg xmlns="http://www.w3.org/2000/svg" xmlns:xlink="http://www.w3.org/1999/xlink" xml:space="preserve" version="1.1" style="shape-rendering:geometricPrecision;text-rendering:geometricPrecision;image-rendering:optimizeQuality;" viewBox="0 0 333.33 416.66249999999997" x="0px" y="0px" fill-rule="evenodd" clip-rule="evenodd"><defs><style type="text/css">
   
    .fil0 {fill:black;fill-rule:nonzero}
   
  </style></defs><g><path class="fil0" d="M166.67 3.46c45.06,0 85.87,18.27 115.4,47.8 29.53,29.54 47.8,70.33 47.8,115.4 0,45.06 -18.27,85.87 -47.8,115.4 -29.54,29.53 -70.34,47.8 -115.4,47.8 -45.07,0 -85.87,-18.27 -115.4,-47.8 -29.53,-29.54 -47.8,-70.34 -47.8,-115.4 0,-45.07 18.27,-85.87 47.8,-115.4 29.54,-29.53 70.33,-47.8 115.4,-47.8zm-81.08 170.09c-4.22,0 -7.65,-3.43 -7.65,-7.65 0,-4.22 3.43,-7.65 7.65,-7.65l73.43 0 0 -73.43c0,-4.22 3.43,-7.65 7.65,-7.65 4.22,0 7.65,3.43 7.65,7.65l0 73.43 73.43 0c4.23,0 7.65,3.43 7.65,7.65 0,4.23 -3.43,7.65 -7.65,7.65l-73.43 0 0 73.43c0,4.22 -3.43,7.65 -7.65,7.65 -4.22,0 -7.65,-3.43 -7.65,-7.65l0 -73.43 -73.43 0zm185.66 -111.47c-26.76,-26.76 -63.74,-43.32 -104.58,-43.32 -40.84,0 -77.82,16.56 -104.58,43.32 -26.76,26.76 -43.32,63.74 -43.32,104.58 0,40.84 16.56,77.82 43.32,104.58 26.76,26.76 63.74,43.32 104.58,43.32 40.84,0 77.82,-16.56 104.58,-43.32 26.76,-26.76 43.32,-63.74 43.32,-104.58 0,-40.84 -16.56,-77.82 -43.32,-104.58z"/></g><text x="0" y="348.33" fill="#000000" font-size="5px" font-weight="bold" font-family="'Helvetica Neue', Helvetica, Arial-Unicode, Arial, Sans-serif">Created by PEBIAN</text><text x="0" y="353.33" fill="#000000" font-size="5px" font-weight="bold" font-family="'Helvetica Neue', Helvetica, Arial-Unicode, Arial, Sans-serif">from the Noun Project</text></svg>