<svg xmlns="http://www.w3.org/2000/svg" xmlns:xlink="http://www.w3.org/1999/xlink" xmlns:serif="http://www.serif.com/" viewBox="0 0 32 40" version="1.1" xml:space="preserve" style="" x="0px" y="0px" fill-rule="evenodd" clip-rule="evenodd" stroke-linejoin="round" stroke-miterlimit="2"><g transform="matrix(1,0,0,1,-222,0)"><path d="M238,1C229.721,1 223,7.721 223,16C223,24.279 229.721,31 238,31C246.279,31 253,24.279 253,16C253,7.721 246.279,1 238,1ZM238,3C245.175,3 251,8.825 251,16C251,23.175 245.175,29 238,29C230.825,29 225,23.175 225,16C225,8.825 230.825,3 238,3ZM238,7L233,7C231.343,7 230,8.343 230,10L230,22C230,23.657 231.343,25 233,25L243,25C243.796,25 244.559,24.684 245.121,24.121C245.684,23.559 246,22.796 246,22C246,18.828 246,13 246,13C246,12.448 245.552,12 245,12C244.448,12 244,12.448 244,13L244,22C244,22.265 243.895,22.52 243.707,22.707C243.52,22.895 243.265,23 243,23C243,23 233,23 233,23C232.448,23 232,22.552 232,22C232,22 232,10 232,10C232,9.448 232.448,9 233,9C233,9 238,9 238,9C238.552,9 239,8.552 239,8C239,7.448 238.552,7 238,7ZM238,13.586L235.707,11.293C235.317,10.903 234.683,10.903 234.293,11.293C233.903,11.683 233.903,12.317 234.293,12.707L236.586,15C237.367,15.781 238.633,15.781 239.414,15C241.228,13.186 245.906,8.509 245.906,8.509C246.296,8.118 246.296,7.485 245.906,7.094C245.515,6.704 244.882,6.704 244.491,7.094L238,13.586Z"/></g><text x="0" y="47" fill="#000000" font-size="5px" font-weight="bold" font-family="'Helvetica Neue', Helvetica, Arial-Unicode, Arial, Sans-serif">Created by Utari Nuraeni</text><text x="0" y="52" fill="#000000" font-size="5px" font-weight="bold" font-family="'Helvetica Neue', Helvetica, Arial-Unicode, Arial, Sans-serif">from the Noun Project</text></svg>